<svg xmlns="http://www.w3.org/2000/svg" xmlns:xlink="http://www.w3.org/1999/xlink" width="200" zoomAndPan="magnify" viewBox="0 0 150 149.999998" height="200" preserveAspectRatio="xMidYMid meet" version="1.0"><defs><clipPath id="01d40b0d79"><path d="M 19.402344 12 L 130 12 L 130 138 L 19.402344 138 Z M 19.402344 12 " clip-rule="nonzero"/></clipPath></defs><rect x="-15" width="180" fill="#ffffff" y="-15" height="179.999997" fill-opacity="1"/><rect x="-15" width="180" fill="#a6a6a6" y="-15" height="179.999997" fill-opacity="1"/><path fill="#000000" d="M 70.605469 124.320312 C 70.640625 126.769531 72.628906 128.734375 75.074219 128.734375 C 77.519531 128.734375 79.511719 126.769531 79.542969 124.320312 C 79.511719 121.871094 77.519531 119.90625 75.074219 119.90625 C 72.628906 119.90625 70.640625 121.871094 70.605469 124.320312 " fill-opacity="1" fill-rule="nonzero"/><path fill="#000000" d="M 69.421875 98.65625 L 80.824219 98.65625 L 80.824219 75.808594 L 69.421875 75.808594 L 69.421875 98.65625 " fill-opacity="1" fill-rule="nonzero"/><g clip-path="url(#01d40b0d79)"><path fill="#000000" d="M 125.445312 60.382812 C 124.457031 61.582031 122.6875 61.765625 121.472656 60.800781 L 74.796875 22.152344 L 28.121094 60.800781 C 27.613281 61.222656 26.972656 61.457031 26.308594 61.457031 C 25.117188 61.433594 24.0625 60.679688 23.65625 59.554688 C 23.253906 58.433594 23.585938 57.175781 24.488281 56.398438 L 40.582031 43.070312 L 40.582031 24.671875 C 40.582031 23.910156 40.882812 23.1875 41.417969 22.652344 C 41.953125 22.113281 42.679688 21.8125 43.433594 21.816406 L 54.839844 21.816406 C 55.597656 21.8125 56.320312 22.113281 56.855469 22.652344 C 57.390625 23.1875 57.691406 23.910156 57.691406 24.671875 L 57.691406 28.90625 L 72.980469 16.242188 C 74.035156 15.367188 75.5625 15.367188 76.617188 16.242188 L 125.105469 56.398438 C 126.28125 57.414062 126.433594 59.183594 125.445312 60.382812 Z M 109.339844 101.515625 C 109.339844 102.269531 109.039062 103 108.503906 103.535156 C 107.96875 104.070312 107.246094 104.371094 106.488281 104.371094 C 102.414062 104.375 81.578125 104.363281 77.972656 104.371094 L 77.972656 114.601562 C 81.265625 115.589844 83.832031 118.183594 84.796875 121.484375 L 103.636719 121.484375 C 105.210938 121.484375 106.488281 122.765625 106.488281 124.34375 C 106.488281 125.921875 105.210938 127.199219 103.636719 127.199219 L 84.785156 127.199219 C 83.488281 131.484375 79.542969 134.417969 75.070312 134.417969 C 70.601562 134.414062 66.65625 131.480469 65.363281 127.191406 L 46.609375 127.191406 C 45.035156 127.191406 43.757812 125.914062 43.757812 124.332031 C 43.757812 122.753906 45.035156 121.476562 46.609375 121.476562 L 65.355469 121.476562 C 66.332031 118.144531 68.941406 115.539062 72.273438 114.574219 L 72.273438 104.371094 C 68.542969 104.367188 47.9375 104.371094 43.757812 104.371094 C 43.003906 104.371094 42.277344 104.070312 41.742188 103.535156 C 41.207031 103 40.90625 102.269531 40.90625 101.515625 L 40.90625 58.667969 C 40.9375 57.113281 42.207031 55.867188 43.757812 55.867188 C 45.3125 55.867188 46.582031 57.113281 46.609375 58.667969 L 46.609375 98.65625 L 63.71875 98.65625 L 63.71875 72.949219 C 63.71875 72.191406 64.019531 71.464844 64.554688 70.929688 C 65.085938 70.394531 65.8125 70.09375 66.570312 70.09375 L 83.675781 70.09375 C 84.433594 70.09375 85.160156 70.394531 85.695312 70.929688 C 86.230469 71.464844 86.527344 72.191406 86.527344 72.949219 L 86.527344 98.65625 L 103.636719 98.65625 L 103.636719 58.667969 C 103.636719 57.910156 103.9375 57.183594 104.472656 56.648438 C 105.003906 56.113281 105.730469 55.808594 106.488281 55.8125 C 107.246094 55.808594 107.96875 56.113281 108.503906 56.648438 C 109.039062 57.183594 109.339844 57.910156 109.339844 58.667969 Z M 127.375 53.652344 L 78.890625 13.5 C 77.742188 12.546875 76.289062 12.023438 74.800781 12.023438 C 73.308594 12.023438 71.855469 12.546875 70.714844 13.496094 L 60.609375 21.863281 C 60.300781 21.230469 59.886719 20.644531 59.371094 20.125 C 58.160156 18.914062 56.550781 18.25 54.839844 18.25 L 43.429688 18.25 C 41.71875 18.25 40.113281 18.917969 38.902344 20.128906 C 37.691406 21.34375 37.023438 22.957031 37.023438 24.671875 L 37.023438 41.394531 L 22.175781 53.691406 C 20.15625 55.421875 19.410156 58.265625 20.308594 60.765625 C 21.210938 63.265625 23.59375 64.972656 26.246094 65.019531 C 26.265625 65.019531 26.289062 65.019531 26.308594 65.019531 C 27.796875 65.019531 29.25 64.496094 30.390625 63.546875 L 37.4375 57.710938 C 37.386719 58.023438 37.355469 58.34375 37.347656 58.667969 L 37.347656 101.511719 C 37.347656 103.207031 38.035156 104.863281 39.222656 106.050781 C 40.433594 107.265625 42.046875 107.933594 43.757812 107.933594 L 68.714844 107.933594 L 68.714844 112.179688 C 66.261719 113.464844 64.265625 115.457031 62.976562 117.910156 L 46.609375 117.910156 C 43.074219 117.910156 40.199219 120.792969 40.199219 124.332031 C 40.199219 127.875 43.074219 130.753906 46.609375 130.753906 L 63 130.753906 C 65.34375 135.164062 69.914062 137.980469 75.070312 137.980469 C 80.226562 137.980469 84.796875 135.167969 87.144531 130.765625 L 103.636719 130.765625 C 107.171875 130.765625 110.046875 127.882812 110.046875 124.34375 C 110.046875 120.800781 107.171875 117.917969 103.636719 117.917969 L 87.175781 117.917969 C 85.90625 115.5 83.941406 113.523438 81.53125 112.234375 L 81.53125 107.933594 L 106.488281 107.933594 C 108.199219 107.933594 109.808594 107.265625 111.019531 106.054688 C 112.214844 104.859375 112.898438 103.203125 112.898438 101.511719 L 112.898438 58.667969 C 112.898438 58.550781 112.894531 58.433594 112.886719 58.316406 L 119.261719 63.59375 C 120.390625 64.488281 121.804688 64.984375 123.246094 64.984375 C 125.164062 64.984375 126.96875 64.132812 128.183594 62.65625 C 130.394531 59.980469 130.058594 55.960938 127.375 53.652344 " fill-opacity="1" fill-rule="nonzero"/></g><path fill="#000000" d="M 46.285156 38.347656 L 51.988281 33.625 L 51.988281 27.527344 L 46.285156 27.527344 L 46.285156 38.347656 " fill-opacity="1" fill-rule="nonzero"/></svg>