<svg xmlns="http://www.w3.org/2000/svg" xmlns:xlink="http://www.w3.org/1999/xlink" width="60" zoomAndPan="magnify" viewBox="0 0 45 44.999999" height="60" preserveAspectRatio="xMidYMid meet" version="1.0"><defs><clipPath id="ff105a1f37"><path d="M 0.824219 0.824219 L 44.175781 0.824219 L 44.175781 44.175781 L 0.824219 44.175781 Z M 0.824219 0.824219 " clip-rule="nonzero"/></clipPath><clipPath id="5286925705"><path d="M 22.5 0.824219 C 10.527344 0.824219 0.824219 10.527344 0.824219 22.5 C 0.824219 34.472656 10.527344 44.175781 22.5 44.175781 C 34.472656 44.175781 44.175781 34.472656 44.175781 22.5 C 44.175781 10.527344 34.472656 0.824219 22.5 0.824219 Z M 22.5 0.824219 " clip-rule="nonzero"/></clipPath><clipPath id="e49881ec11"><path d="M 7.613281 34 L 37 34 L 37 37.648438 L 7.613281 37.648438 Z M 7.613281 34 " clip-rule="nonzero"/></clipPath><clipPath id="6a0c8f168f"><path d="M 30 23 L 37.613281 23 L 37.613281 30 L 30 30 Z M 30 23 " clip-rule="nonzero"/></clipPath></defs><g clip-path="url(#ff105a1f37)"><g clip-path="url(#5286925705)"><path fill="#38b6ff" d="M 0.824219 0.824219 L 44.175781 0.824219 L 44.175781 44.175781 L 0.824219 44.175781 Z M 0.824219 0.824219 " fill-opacity="1" fill-rule="nonzero"/></g></g><path fill="#000000" d="M 29.203125 35.507812 L 9.777344 35.507812 C 9.558594 35.507812 9.378906 35.328125 9.378906 35.109375 L 9.378906 22.179688 C 9.378906 22.078125 9.417969 21.976562 9.492188 21.902344 L 19.207031 12.125 C 19.355469 11.972656 19.625 11.972656 19.777344 12.125 L 29.488281 21.902344 C 29.5625 21.976562 29.605469 22.078125 29.605469 22.179688 L 29.605469 35.109375 C 29.605469 35.328125 29.425781 35.507812 29.203125 35.507812 Z M 10.179688 34.710938 L 28.800781 34.710938 L 28.800781 22.34375 L 19.492188 12.972656 L 10.179688 22.34375 Z M 10.179688 34.710938 " fill-opacity="1" fill-rule="evenodd"/><path fill="#000000" d="M 29.203125 22.582031 L 9.777344 22.582031 C 9.25 22.582031 9.25 21.785156 9.777344 21.785156 L 29.203125 21.785156 C 29.730469 21.785156 29.730469 22.582031 29.203125 22.582031 Z M 29.203125 22.582031 " fill-opacity="1" fill-rule="evenodd"/><path fill="#000000" d="M 26.769531 35.507812 C 26.546875 35.507812 26.367188 35.328125 26.367188 35.109375 L 26.367188 27.101562 L 21.640625 27.101562 L 21.640625 35.109375 C 21.640625 35.632812 20.835938 35.632812 20.835938 35.109375 L 20.835938 26.703125 C 20.835938 26.484375 21.015625 26.304688 21.238281 26.304688 L 26.769531 26.304688 C 26.992188 26.304688 27.171875 26.484375 27.171875 26.703125 L 27.171875 35.109375 C 27.171875 35.328125 26.992188 35.507812 26.769531 35.507812 Z M 26.769531 35.507812 " fill-opacity="1" fill-rule="evenodd"/><path fill="#000000" d="M 25.523438 32.191406 C 25.300781 32.191406 25.121094 32.015625 25.121094 31.792969 L 25.121094 30.019531 C 25.121094 29.496094 25.925781 29.496094 25.925781 30.019531 L 25.925781 31.792969 C 25.925781 32.015625 25.746094 32.191406 25.523438 32.191406 Z M 25.523438 32.191406 " fill-opacity="1" fill-rule="evenodd"/><path fill="#000000" d="M 19.0625 32.058594 L 11.722656 32.058594 C 11.503906 32.058594 11.324219 31.878906 11.324219 31.660156 L 11.324219 26.703125 C 11.324219 26.484375 11.503906 26.304688 11.722656 26.304688 L 19.0625 26.308594 C 19.285156 26.308594 19.464844 26.484375 19.464844 26.707031 L 19.464844 31.660156 C 19.464844 31.878906 19.285156 32.058594 19.0625 32.058594 Z M 12.125 31.261719 L 18.664062 31.261719 L 18.664062 27.101562 L 12.125 27.101562 Z M 12.125 31.261719 " fill-opacity="1" fill-rule="evenodd"/><path fill="#000000" d="M 15.394531 32.058594 C 15.171875 32.058594 14.992188 31.878906 14.992188 31.660156 L 14.992188 26.703125 C 14.992188 26.179688 15.796875 26.179688 15.796875 26.703125 L 15.796875 31.660156 C 15.796875 31.878906 15.617188 32.058594 15.394531 32.058594 Z M 15.394531 32.058594 " fill-opacity="1" fill-rule="evenodd"/><path fill="#000000" d="M 19.0625 29.582031 L 11.726562 29.582031 C 11.195312 29.582031 11.195312 28.785156 11.726562 28.785156 L 19.0625 28.785156 C 19.589844 28.785156 19.59375 29.582031 19.0625 29.582031 Z M 19.0625 29.582031 " fill-opacity="1" fill-rule="evenodd"/><g clip-path="url(#e49881ec11)"><path fill="#000000" d="M 36.09375 37.652344 L 8.019531 37.652344 C 7.796875 37.652344 7.617188 37.472656 7.617188 37.253906 L 7.617188 35.109375 C 7.617188 34.890625 7.796875 34.710938 8.019531 34.710938 L 36.09375 34.710938 C 36.316406 34.710938 36.496094 34.890625 36.496094 35.109375 L 36.496094 37.253906 C 36.496094 37.472656 36.316406 37.652344 36.09375 37.652344 Z M 8.421875 36.855469 L 35.695312 36.855469 L 35.695312 35.507812 L 8.421875 35.507812 Z M 8.421875 36.855469 " fill-opacity="1" fill-rule="evenodd"/></g><path fill="#000000" d="M 19.492188 20.742188 C 18.210938 20.742188 17.167969 19.707031 17.167969 18.433594 C 17.167969 17.164062 18.210938 16.128906 19.492188 16.128906 C 20.773438 16.128906 21.8125 17.164062 21.8125 18.433594 C 21.8125 19.707031 20.773438 20.742188 19.492188 20.742188 Z M 19.492188 16.925781 C 17.488281 16.925781 17.488281 19.945312 19.492188 19.945312 C 21.492188 19.945312 21.492188 16.925781 19.492188 16.925781 Z M 19.492188 16.925781 " fill-opacity="1" fill-rule="evenodd"/><path fill="#000000" d="M 27.035156 20.398438 C 26.816406 20.398438 26.636719 20.21875 26.636719 20 L 26.636719 14.550781 C 26.636719 14.027344 27.4375 14.027344 27.4375 14.550781 L 27.4375 20 C 27.4375 20.21875 27.257812 20.398438 27.035156 20.398438 Z M 23.820312 17.160156 C 23.597656 17.160156 23.417969 16.980469 23.417969 16.761719 L 23.417969 14.550781 C 23.417969 14.027344 24.21875 14.027344 24.21875 14.550781 L 24.21875 16.761719 C 24.21875 16.980469 24.039062 17.160156 23.820312 17.160156 Z M 23.820312 17.160156 " fill-opacity="1" fill-rule="evenodd"/><path fill="#000000" d="M 27.78125 14.949219 L 23.074219 14.949219 C 22.851562 14.949219 22.671875 14.769531 22.671875 14.550781 L 22.671875 12.40625 C 22.671875 12.1875 22.851562 12.007812 23.074219 12.007812 L 27.78125 12.007812 C 28.003906 12.007812 28.183594 12.1875 28.183594 12.40625 L 28.183594 14.550781 C 28.183594 14.769531 28.003906 14.949219 27.78125 14.949219 Z M 23.476562 14.152344 L 27.378906 14.152344 L 27.378906 12.804688 L 23.476562 12.804688 Z M 23.476562 14.152344 " fill-opacity="1" fill-rule="evenodd"/><path fill="#000000" d="M 34.238281 35.507812 C 34.019531 35.507812 33.839844 35.328125 33.839844 35.109375 L 33.839844 27.859375 C 33.839844 27.335938 34.640625 27.335938 34.640625 27.859375 L 34.640625 35.109375 C 34.640625 35.328125 34.460938 35.507812 34.238281 35.507812 Z M 34.238281 35.507812 " fill-opacity="1" fill-rule="evenodd"/><g clip-path="url(#6a0c8f168f)"><path fill="#000000" d="M 34.238281 29.898438 C 32.382812 29.898438 30.871094 28.398438 30.871094 26.554688 C 30.871094 24.710938 32.382812 23.210938 34.238281 23.210938 C 36.097656 23.210938 37.609375 24.710938 37.609375 26.554688 C 37.609375 28.398438 36.097656 29.898438 34.238281 29.898438 Z M 34.238281 24.007812 C 32.824219 24.007812 31.671875 25.148438 31.671875 26.554688 C 31.671875 27.960938 32.824219 29.101562 34.238281 29.101562 C 35.65625 29.101562 36.804688 27.960938 36.804688 26.554688 C 36.804688 25.148438 35.65625 24.007812 34.238281 24.007812 Z M 34.238281 24.007812 " fill-opacity="1" fill-rule="evenodd"/></g><path fill="#000000" d="M 34.238281 31.882812 C 34.074219 31.882812 32.058594 31.066406 31.734375 30.941406 C 31.242188 30.753906 31.53125 30.007812 32.023438 30.199219 L 34.386719 31.113281 C 34.796875 31.273438 34.679688 31.882812 34.238281 31.882812 Z M 34.238281 31.882812 " fill-opacity="1" fill-rule="evenodd"/><path fill="#000000" d="M 34.238281 33.042969 C 33.800781 33.042969 33.679688 32.429688 34.09375 32.273438 L 36.457031 31.359375 C 36.945312 31.167969 37.238281 31.910156 36.746094 32.101562 C 36.421875 32.226562 34.40625 33.042969 34.238281 33.042969 Z M 34.238281 33.042969 " fill-opacity="1" fill-rule="evenodd"/><path fill="#000000" d="M 32.722656 9.890625 C 32.621094 9.890625 32.515625 9.851562 32.4375 9.769531 C 28.675781 5.960938 22.523438 5.898438 18.691406 9.628906 C 18.3125 9.996094 17.75 9.425781 18.128906 9.058594 C 22.285156 5.015625 28.941406 5.089844 33.007812 9.210938 C 33.257812 9.464844 33.074219 9.890625 32.722656 9.890625 Z M 32.722656 9.890625 " fill-opacity="1" fill-rule="evenodd"/><path fill="#000000" d="M 34.230469 8.097656 C 34.125 8.097656 34.019531 8.058594 33.941406 7.976562 C 29.378906 3.355469 21.878906 3.277344 17.222656 7.804688 C 16.84375 8.171875 16.28125 7.605469 16.660156 7.238281 C 21.632812 2.398438 29.644531 2.480469 34.515625 7.417969 C 34.765625 7.671875 34.582031 8.097656 34.230469 8.097656 Z M 34.230469 8.097656 " fill-opacity="1" fill-rule="evenodd"/><path fill="#000000" d="M 30.675781 11.390625 C 30.570312 11.390625 30.464844 11.351562 30.386719 11.273438 C 27.738281 8.589844 23.40625 8.546875 20.707031 11.171875 C 20.332031 11.539062 19.769531 10.96875 20.144531 10.601562 C 23.164062 7.667969 28 7.714844 30.960938 10.714844 C 31.210938 10.96875 31.027344 11.390625 30.675781 11.390625 Z M 30.675781 11.390625 " fill-opacity="1" fill-rule="evenodd"/><path fill="#ffcc00" d="M 23.476562 12.804688 L 27.378906 12.804688 L 27.378906 14.152344 L 23.476562 14.152344 Z M 23.476562 12.804688 " fill-opacity="1" fill-rule="evenodd"/><path fill="#d7d7d7" d="M 26.636719 14.949219 L 24.21875 14.949219 L 24.21875 16.597656 L 26.636719 19.027344 Z M 26.636719 14.949219 " fill-opacity="1" fill-rule="evenodd"/><path fill="#fb505a" d="M 28.242188 21.785156 L 19.492188 12.972656 L 10.738281 21.785156 Z M 21.8125 18.433594 C 21.8125 19.707031 20.773438 20.742188 19.492188 20.742188 C 18.210938 20.742188 17.167969 19.707031 17.167969 18.433594 C 17.167969 17.164062 18.210938 16.128906 19.492188 16.128906 C 20.773438 16.128906 21.8125 17.164062 21.8125 18.433594 Z M 21.8125 18.433594 " fill-opacity="1" fill-rule="evenodd"/><path fill="#d6e3ff" d="M 19.492188 19.945312 C 21.492188 19.945312 21.492188 16.925781 19.492188 16.925781 C 17.488281 16.925781 17.488281 19.945312 19.492188 19.945312 Z M 19.492188 19.945312 " fill-opacity="1" fill-rule="evenodd"/><path fill="#9cc735" d="M 34.238281 24.007812 C 32.824219 24.007812 31.671875 25.148438 31.671875 26.554688 C 31.671875 27.824219 32.613281 28.878906 33.839844 29.070312 L 33.839844 27.859375 C 33.839844 27.335938 34.640625 27.335938 34.640625 27.859375 L 34.640625 29.070312 C 35.867188 28.878906 36.804688 27.824219 36.804688 26.554688 C 36.804688 25.148438 35.65625 24.007812 34.238281 24.007812 Z M 34.238281 24.007812 " fill-opacity="1" fill-rule="evenodd"/><path fill="#4a5254" d="M 25.121094 31.792969 L 25.121094 30.019531 C 25.121094 29.496094 25.925781 29.496094 25.925781 30.019531 L 25.925781 31.792969 C 25.925781 32.320312 25.121094 32.320312 25.121094 31.792969 Z M 26.367188 34.710938 L 26.367188 27.101562 L 21.640625 27.101562 L 21.640625 34.710938 Z M 26.367188 34.710938 " fill-opacity="1" fill-rule="evenodd"/><path fill="#89d3e5" d="M 15.796875 29.582031 L 18.664062 29.582031 L 18.664062 31.261719 L 15.796875 31.261719 Z M 15.796875 29.582031 " fill-opacity="1" fill-rule="evenodd"/><path fill="#89d3e5" d="M 12.125 29.582031 L 14.992188 29.582031 L 14.992188 31.261719 L 12.125 31.261719 Z M 12.125 29.582031 " fill-opacity="1" fill-rule="evenodd"/><path fill="#89d3e5" d="M 12.125 27.101562 L 14.992188 27.101562 L 14.992188 28.785156 L 12.125 28.785156 Z M 12.125 27.101562 " fill-opacity="1" fill-rule="evenodd"/><path fill="#89d3e5" d="M 15.796875 27.101562 L 18.664062 27.101562 L 18.664062 28.785156 L 15.796875 28.785156 Z M 15.796875 27.101562 " fill-opacity="1" fill-rule="evenodd"/><path fill="#ffcc00" d="M 11.722656 26.304688 L 19.0625 26.304688 C 19.285156 26.304688 19.464844 26.484375 19.464844 26.703125 L 19.464844 31.660156 C 19.464844 31.878906 19.285156 32.058594 19.0625 32.058594 L 11.722656 32.058594 C 11.503906 32.058594 11.324219 31.878906 11.324219 31.660156 L 11.324219 26.703125 C 11.324219 26.484375 11.503906 26.304688 11.722656 26.304688 Z M 21.238281 26.304688 L 26.769531 26.304688 C 26.992188 26.304688 27.171875 26.484375 27.171875 26.703125 L 27.171875 34.710938 L 28.800781 34.710938 L 28.800781 22.578125 L 10.179688 22.578125 L 10.179688 34.710938 L 20.835938 34.710938 L 20.835938 26.703125 C 20.835938 26.484375 21.015625 26.304688 21.238281 26.304688 Z M 21.238281 26.304688 " fill-opacity="1" fill-rule="evenodd"/><path fill="#b3b3b3" d="M 8.421875 35.507812 L 35.695312 35.507812 L 35.695312 36.855469 L 8.421875 36.855469 Z M 8.421875 35.507812 " fill-opacity="1" fill-rule="evenodd"/></svg>